PathFileType  4	(X/Y/Z) C:\Users\antoi\Documents\MyRepositories\mobilecap\ResultsAnalysis
DataRate	CameraRate	NumFrames	NumMarkers	Units	OrigDataRate	OrigDataStartFrame	OrigNumFrames
100.0	100.0	4	55	mm	100.0	126	501
Frame#	Time	r_knee			r_shank_antsup			r_ankle			r_calc			r_5meta			r_toe			L_knee			L_shank_antsup			L_ankle			L_calc			L_5meta			L_toe			r_mknee			r_mankle			L_mknee			L_mankle			r_sh2			r_sh3			r_sh4			L_sh2			L_sh3			r_thigh1			r_thigh2			r_thigh3			r_thigh4			r_thigh5			L_thigh1			L_thigh2			L_thigh3			L_thigh4			r.ASIS			r.PSIS			L.ASIS			L.PSIS			C7			R_Shoulder			L_Shoulder			R_Sternum			L_Sternum			R_humerus			R_elbow_med			R_elbow_lat			R_forearm			R_wrist_radius			R_wrist_ulna			L_humerus			L_elbow_med			L_elbow_lat			L_forearm			L_wrist_radius			L_wrist_ulna			R_HJC			L_HJC			R_HJC_reg			L_HJC_reg			
		X1	Y1	Z1	X2	Y2	Z2	X3	Y3	Z3	X4	Y4	Z4	X5	Y5	Z5	X6	Y6	Z6	X7	Y7	Z7	X8	Y8	Z8	X9	Y9	Z9	X10	Y10	Z10	X11	Y11	Z11	X12	Y12	Z12	X13	Y13	Z13	X14	Y14	Z14	X15	Y15	Z15	X16	Y16	Z16	X17	Y17	Z17	X18	Y18	Z18	X19	Y19	Z19	X20	Y20	Z20	X21	Y21	Z21	X22	Y22	Z22	X23	Y23	Z23	X24	Y24	Z24	X25	Y25	Z25	X26	Y26	Z26	X27	Y27	Z27	X28	Y28	Z28	X29	Y29	Z29	X30	Y30	Z30	X31	Y31	Z31	X32	Y32	Z32	X33	Y33	Z33	X34	Y34	Z34	X35	Y35	Z35	X36	Y36	Z36	X37	Y37	Z37	X38	Y38	Z38	X39	Y39	Z39	X40	Y40	Z40	X41	Y41	Z41	X42	Y42	Z42	X43	Y43	Z43	X44	Y44	Z44	X45	Y45	Z45	X46	Y46	Z46	X47	Y47	Z47	X48	Y48	Z48	X49	Y49	Z49	X50	Y50	Z50	X51	Y51	Z51	X52	Y52	Z52	X53	Y53	Z53	X54	Y54	Z54	X55	Y55	Z55	

126	1.25000000	-260.35539	474.80864	-419.71884	-236.57046	421.71453	-412.39960	-257.08543	85.89940	-387.47331	-308.92747	53.21542	-429.34784	-147.69250	42.81289	-354.10082	-109.52470	61.76136	-406.70735	-234.36077	473.22190	-773.93022	-204.13478	393.24370	-770.90142	-251.88829	94.89215	-816.81607	-308.83629	50.28320	-779.40679	-147.76836	45.19906	-846.19322	-101.36364	59.71479	-789.79542	-253.98724	447.99101	-547.59086	-240.78089	96.86432	-464.61067	-241.33339	447.52336	-647.63930	-240.87293	97.08438	-736.02927	-243.67305	311.05151	-389.00854	-308.43038	432.74483	-392.67870	-323.87701	315.26316	-377.82712	-281.54388	416.39718	-814.53764	-286.89323	295.47059	-837.18872	-170.26554	720.72449	-396.19026	-177.92343	608.40037	-405.41783	-241.22746	588.93428	-396.03301	-282.53780	726.47886	-408.38229	-286.35310	610.24150	-419.78613	-147.69361	749.34150	-791.91415	-151.17271	609.09516	-773.00022	-258.52931	748.37142	-808.09517	-264.32226	613.07314	-779.74954	-113.80768	921.04889	-479.20059	-322.25376	942.62127	-563.83726	-105.57503	927.09283	-703.97255	-316.74449	945.45836	-643.43041	-272.62107	1385.41807	-595.03912	-222.19124	1359.64980	-451.93671	-228.65394	1359.51795	-733.48100	-143.34449	1332.03441	-570.56846	-143.86962	1331.02836	-610.41546	-196.40907	1250.86452	-385.69362	-264.49332	1041.51458	-392.48841	-243.70412	1058.03685	-335.14533	-186.16600	997.20055	-293.88257	-145.55082	859.35640	-259.24204	-181.34101	857.43749	-244.22012	-222.84619	1261.37482	-809.80495	-256.65020	1040.14414	-799.73337	-246.55498	1065.25599	-858.29975	-188.65273	985.28421	-899.78937	-142.92962	865.20657	-919.44552	-180.17146	860.18139	-935.85706	-192.22049	830.33406	-493.29130	-183.37713	838.38591	-700.45380	-182.27009	848.50842	-517.50591	-172.02184	853.78574	-665.56008	
127	1.26000000	-260.31159	474.81790	-419.66456	-236.46449	421.77413	-412.32803	-257.10675	85.88847	-387.47682	-308.93249	53.21266	-429.31845	-147.70591	42.83926	-354.08400	-109.51112	61.76944	-406.64550	-234.33927	473.22933	-773.95374	-204.12142	393.25871	-770.89172	-251.87618	94.87826	-816.81260	-308.83200	50.29923	-779.40194	-147.76546	45.21431	-846.18601	-101.35769	59.73425	-789.78140	-253.98220	448.00902	-547.59394	-240.77719	96.86478	-464.59359	-241.32857	447.51993	-647.63590	-240.88280	97.09020	-736.02125	-243.61030	311.07796	-389.00609	-308.25474	432.94053	-392.64781	-323.82299	315.24901	-377.85681	-281.55456	416.41021	-814.52367	-286.84167	295.59314	-837.19206	-170.26539	720.68574	-396.17183	-177.94659	608.51935	-405.22840	-241.17908	588.93845	-396.01473	-282.51921	726.47701	-408.37440	-286.31669	610.27835	-419.74216	-147.70300	749.34638	-791.91706	-151.15865	609.14204	-772.98646	-258.55465	748.38523	-808.08382	-264.31992	613.09101	-779.75071	-113.79850	921.06632	-479.20748	-322.29051	942.62971	-563.81661	-105.60797	927.12818	-703.98897	-316.72979	945.48957	-643.40726	-272.62194	1385.43184	-595.00415	-222.24878	1359.65840	-451.91041	-228.70000	1359.52019	-733.44919	-143.39588	1332.03447	-570.55737	-143.88078	1331.07794	-610.33123	-196.47260	1250.87113	-385.69228	-264.47298	1041.47592	-392.48669	-243.70322	1058.03463	-335.15619	-186.17186	997.20891	-293.91467	-145.55352	859.33966	-259.21583	-181.34833	857.41330	-244.27089	-222.89004	1261.38479	-809.76973	-256.68871	1040.16906	-799.69372	-246.62622	1065.19002	-858.30658	-188.69045	985.27859	-899.74261	-142.95297	865.21572	-919.43569	-180.19818	860.17773	-935.79955	-192.21498	830.34716	-493.29977	-183.39839	838.42075	-700.46257	-182.31737	848.49998	-517.58275	-171.97332	853.81978	-665.63431	
128	1.27000000	-260.27404	474.79461	-419.63720	-236.37624	421.81957	-412.27678	-257.10870	85.90047	-387.45284	-308.91885	53.19776	-429.30964	-147.67752	42.88534	-354.03432	-109.50435	61.75532	-406.67634	-234.34724	473.19684	-773.91049	-204.12365	393.23851	-770.89203	-251.88036	94.86903	-816.81517	-308.83673	50.28147	-779.41155	-147.77246	45.19056	-846.19182	-101.35760	59.72765	-789.78963	-253.97177	448.02276	-547.59015	-240.77585	96.83376	-464.57718	-241.31784	447.52154	-647.62995	-240.89249	97.08782	-736.02285	-243.62912	311.05141	-388.99475	-308.32080	432.85291	-392.63864	-323.77369	315.25922	-377.84745	-281.56918	416.38765	-814.51405	-286.90381	295.49703	-837.15967	-170.27436	720.71503	-396.18531	-177.86229	608.67427	-405.11888	-241.14182	588.89112	-396.00846	-282.48496	726.44897	-408.35019	-286.27899	610.28928	-419.69633	-147.76376	749.35568	-791.89127	-151.13395	609.17985	-773.04994	-258.57849	748.38568	-808.09181	-264.33342	613.09047	-779.74107	-113.77995	921.07186	-479.21114	-322.26504	942.64767	-563.79567	-105.63850	927.12953	-703.99071	-316.73984	945.48412	-643.36059	-272.67007	1385.43931	-595.04884	-222.31139	1359.65852	-451.84752	-228.74087	1359.49367	-733.39529	-143.45632	1332.00203	-570.55219	-143.90978	1331.09703	-610.26794	-196.54335	1250.87127	-385.63701	-264.55176	1041.39885	-392.48768	-243.70068	1058.03580	-335.16291	-186.18122	997.20231	-293.93039	-145.53553	859.33807	-259.22353	-181.32461	857.41000	-244.26672	-222.92936	1261.37119	-809.75929	-256.71489	1040.17677	-799.67553	-246.67149	1065.15607	-858.26531	-188.72044	985.26387	-899.73456	-142.97633	865.20558	-919.42973	-180.25805	860.11109	-935.65234	-192.19556	830.35674	-493.28350	-183.42036	838.41970	-700.44846	-182.30094	848.53676	-517.53494	-172.01954	853.81485	-665.58997	
129	1.28000000	-260.22422	474.79052	-419.62984	-236.35918	421.80917	-412.27317	-257.09715	85.91069	-387.41988	-308.90927	53.16487	-429.33326	-147.66642	42.90316	-354.00549	-109.48952	61.75115	-406.73956	-234.37784	473.12109	-773.82752	-204.13685	393.19857	-770.91209	-251.89850	94.86767	-816.82074	-308.85533	50.23850	-779.46078	-147.78308	45.13445	-846.21105	-101.36085	59.70227	-789.80798	-253.96611	448.03159	-547.58744	-240.78116	96.77139	-464.55904	-241.30706	447.51867	-647.64002	-240.89377	97.08025	-736.02787	-243.66853	310.99734	-388.96936	-308.77175	432.22682	-392.69103	-323.87356	315.18024	-377.86211	-281.57520	416.33940	-814.52623	-286.97833	295.32029	-837.12581	-170.26678	720.78986	-396.24981	-177.68971	608.80069	-405.14850	-241.10350	588.88986	-395.98175	-282.42665	726.46251	-408.31707	-286.25638	610.28448	-419.69318	-147.86177	749.36871	-791.85553	-151.14196	609.13933	-773.12877	-258.60346	748.36316	-808.11326	-264.36616	613.05224	-779.71196	-113.74949	921.06816	-479.20892	-322.21682	942.65897	-563.77956	-105.66937	927.10792	-704.00183	-316.76803	945.48410	-643.34980	-272.73537	1385.42564	-595.14692	-222.36350	1359.66799	-451.76553	-228.74964	1359.45156	-733.38215	-143.50944	1331.96351	-570.56088	-143.95323	1331.08744	-610.25493	-196.61993	1250.88858	-385.59164	-264.64201	1041.35925	-392.50803	-243.71478	1058.02025	-335.17663	-186.19209	997.18993	-293.93416	-145.50014	859.34847	-259.27114	-181.29569	857.39564	-244.26157	-222.96027	1261.33539	-809.75311	-256.72668	1040.16069	-799.65713	-246.68499	1065.12211	-858.16704	-188.75598	985.21374	-899.73271	-142.99316	865.17245	-919.43187	-180.32378	860.00854	-935.50892	-192.18011	830.36147	-493.27309	-183.44448	838.40308	-700.44055	-182.23776	848.53980	-517.45573	-172.09804	853.79707	-665.52852	
